<?xml version="1.0" encoding="UTF-8"?>
<!-- Generator: Adobe Illustrator 24.3.0, SVG Export Plug-In . SVG Version: 6.00 Build 0)  -->
<svg version="1.1" id="Logo" xmlns="http://www.w3.org/2000/svg" xmlns:xlink="http://www.w3.org/1999/xlink" x="0px" y="0px" viewBox="0 0 143.3 49.7" style="enable-background:new 0 0 143.3 49.7;" xml:space="preserve">
<style type="text/css">
	.st0{fill:#E50049;}
</style>
<path d="M2.5,2.4h6.9v24.3H2.5V2.4z"/>
<path d="M19.5,7.9H12V2.4h21.8v5.5h-7.4v18.8h-6.9V7.9z"/>
<path d="M55.8,21.4v5.3H36.3V2.4h19.1v5.3H43.1v4.1h10.8V17H43.1v4.4H55.8z"/>
<path d="M57.7,14.6c0-7.4,5.7-12.6,13.4-12.6c4.5,0,8.1,1.6,10.4,4.6l-4.4,4c-1.5-1.8-3.4-2.8-5.7-2.8c-4,0-6.8,2.8-6.8,6.9  s2.8,6.9,6.8,6.9c2.3,0,4.2-1,5.7-2.8l4.4,4c-2.4,3-6,4.6-10.4,4.6C63.3,27.2,57.7,22,57.7,14.6z"/>
<path d="M82.8,14.6c0-7.3,5.7-12.6,13.5-12.6s13.5,5.3,13.5,12.6s-5.7,12.6-13.5,12.6S82.8,21.9,82.8,14.6z M102.8,14.6  c0-4.2-2.9-6.9-6.6-6.9s-6.6,2.7-6.6,6.9c0,4.2,2.9,6.9,6.6,6.9S102.8,18.8,102.8,14.6z"/>
<path d="M134.6,26.7l-0.1-12.9l-6.2,10.5h-3.1l-6.2-10.1v12.5h-6.4V2.4h5.7l8.5,14l8.3-14h5.7l0.1,24.3H134.6z"/>
<path class="st0" d="M11.3,45.2H5.8l-1,2.4H2.4l5-10.9h2.4l4.9,10.9h-2.4L11.3,45.2z M10.5,43.3l-2-4.5l-2,4.5H10.5z M28.3,47.5  l-2.2-3.1h-0.2h-2.3v3.1h-2.4V36.6h4.7c2.9,0,4.8,1.5,4.8,3.9c0,1.6-0.8,2.8-2.3,3.5l2.5,3.5H28.3z M25.8,38.5h-2.1v4h2.1  c1.7,0,2.5-0.7,2.5-2C28.3,39.3,27.4,38.5,25.8,38.5z M40.2,38.6h-3.6v-2h9.6v2h-3.6v9h-2.4V38.6z"/>
<path d="M52.9,36.6h4.9c3.7,0,6.1,2.1,6.1,5.5c0,3.3-2.4,5.5-6.1,5.5h-4.9V36.6z M57.8,45.6c2.3,0,3.8-1.3,3.8-3.5s-1.4-3.5-3.8-3.5  h-2.5v7H57.8z M79.8,45.6v1.9h-8.5V36.6h8.3v1.9h-5.9v2.5H79v1.9h-5.2v2.7H79.8z M86.2,46.5l0.9-1.9c0.9,0.7,2.3,1.1,3.7,1.1  c1.6,0,2.2-0.6,2.2-1.2c0-2.2-6.5-0.6-6.5-4.7c0-2,1.8-3.4,4.6-3.4c1.4,0,2.8,0.3,3.8,0.9l-0.8,1.9c-1-0.6-2.1-0.8-3.1-0.8  c-1.5,0-2.2,0.6-2.2,1.3c0,2.1,6.5,0.6,6.5,4.6c0,2.1-1.7,3.4-4.7,3.4C89,47.7,87.2,47.2,86.2,46.5z M102.6,36.6h2.4v10.9h-2.4V36.6  z M120.6,42h2.3v4.4c-1.1,0.9-2.8,1.4-4.4,1.4c-3.6,0-6.1-2.4-6.1-5.7c0-3.2,2.6-5.6,6-5.6c2,0,3.6,0.6,4.6,1.8l-1.6,1.5  c-0.8-0.9-1.8-1.3-3-1.3c-2.1,0-3.7,1.5-3.7,3.6c0,2.1,1.5,3.6,3.7,3.6c0.7,0,1.4-0.2,2-0.5V42z M140.9,36.6v10.9h-2l-5.7-6.9v6.9  h-2.4V36.6h2l5.7,6.9v-6.9H140.9z"/>
</svg>